<svg width="588" height="524" viewBox="0 0 588 524" fill="none" xmlns="http://www.w3.org/2000/svg">
<g clip-path="url(#clip0_4463_438)">
<path d="M425.5 524L460.062 267.715L491.495 274.993L457.5 524L425.5 524Z" fill="#2F68AC"/>
<path d="M470.168 270.059L437 524L425.5 524L460.062 267.715L470.168 270.059Z" fill="#408DEB"/>
<path d="M564.22 291.402L366.033 254.5C366.033 254.5 368.933 106.533 435.635 106.533L570.644 146.717C570.644 146.717 593.934 170.046 585.903 211.86C580.529 238.845 573.283 265.424 564.22 291.402V291.402Z" fill="#2F68AC"/>
<path d="M455.163 160.869C451.64 196.052 432.733 256.105 429.494 266.218L367.741 254.498C367.741 254.498 370.586 106.531 436.016 106.531C436.016 106.531 458.993 122.382 455.163 160.869Z" fill="url(#paint0_linear_4463_438)"/>
<path d="M522.191 161.071C522.186 162.467 522.596 163.834 523.368 164.997C524.14 166.16 525.239 167.067 526.527 167.605C527.815 168.142 529.233 168.285 530.602 168.015C531.971 167.746 533.229 167.076 534.217 166.09C535.205 165.104 535.879 163.847 536.152 162.478C536.426 161.109 536.288 159.689 535.755 158.399C535.222 157.109 534.319 156.006 533.159 155.23C531.999 154.453 530.635 154.039 529.24 154.039C527.374 154.039 525.585 154.779 524.263 156.097C522.942 157.416 522.197 159.204 522.191 161.071V161.071Z" fill="#EB6E99"/>
<path d="M529.575 162.432C529.575 155.4 540.216 51.9481 540.216 51.9481L532.453 49.8496L524.488 157.565" fill="#408DEB"/>
<path d="M428.987 266.218L428.497 271.107C428.497 271.107 360.233 282.738 338.728 285.462C317.223 288.185 286.683 281.22 297.882 272.402C309.081 263.584 428.987 266.218 428.987 266.218Z" fill="#408DEB"/>
<path d="M428.987 266.218L366.034 254.498C366.034 254.498 319.699 253.895 302.187 267.714C284.675 281.533 319.052 281.555 338.728 279.323C358.404 277.09 428.987 266.218 428.987 266.218Z" fill="#2F68AC"/>
<path d="M388.609 9.823C388.609 9.823 408.263 -4.93345 424.414 15.4488C440.565 35.831 457.408 99.7459 457.408 99.7459C457.408 99.7459 474.964 76.5731 498.12 66.036C521.276 55.4988 470.748 99.0538 458.099 105.372C424.503 101.063 370.45 100.371 388.609 9.823Z" fill="#3A82D6"/>
<path d="M392.959 23.2852L393.517 31.8577L378.704 26.7008L392.959 23.2852Z" fill="#EF9E1D"/>
<path d="M399.541 19.5999C399.541 20.6268 400.009 21.4751 400.611 21.4751C401.214 21.4751 401.682 20.6268 401.682 19.5999C401.682 18.573 401.191 17.7246 400.611 17.7246C400.031 17.7246 399.541 18.5506 399.541 19.5999Z" fill="#27004F"/>
<path d="M390.037 19.8694C390.037 20.9186 390.528 21.7446 391.13 21.7446C391.732 21.7446 392.201 20.9186 392.201 19.8694C392.201 18.8201 391.71 17.9941 391.13 17.9941C390.55 17.9941 390.037 18.7532 390.037 19.8694Z" fill="#27004F"/>
<path d="M405.608 38.332C404.994 39.0298 404.537 39.8512 404.268 40.7408C403.998 41.6305 403.923 42.5676 404.046 43.489C404.158 45.3419 404.426 47.1502 404.649 48.9808C405.063 52.6379 405.689 56.268 406.523 59.8528C407.356 63.4717 408.56 66.9952 410.114 70.3676C411.741 73.7714 413.953 76.8622 416.651 79.4983L418.301 81.1057L418.301 78.8732C418.102 74.2916 417.429 69.7429 416.294 65.3L414.397 65.9697C417.392 72.8056 422.325 78.6118 428.585 82.6684L431.106 84.3204L429.969 81.5298L425.842 71.4392L424.391 72.3098C428.287 76.6478 432.717 80.4735 437.576 83.6953C442.428 86.8739 447.678 89.3962 453.191 91.1963C447.882 88.9976 442.85 86.1802 438.2 82.8023C433.552 79.4811 429.347 75.5801 425.685 71.1936L422.295 67.1306L424.235 72.0643L428.228 82.2219L429.612 81.1057C423.757 77.1397 419.122 71.6202 416.227 65.166L414.353 65.8357C415.519 70.1237 416.222 74.5245 416.45 78.9625L418.011 78.2481C415.455 75.7649 413.316 72.8853 411.676 69.7202C410.039 66.5014 408.746 63.1192 407.816 59.6295C406.857 56.1246 406.143 52.5304 405.452 48.9585C405.139 47.1502 404.76 45.3419 404.559 43.5559C404.352 42.6607 404.339 41.7315 404.52 40.8306C404.7 39.9297 405.072 39.0778 405.608 38.332V38.332Z" fill="#27004F"/>
<path d="M442.528 99.2324L440.922 107.559L434.743 106.488L434.475 109.993" stroke="#EF9E1D" stroke-width="0.93" stroke-miterlimit="10"/>
<path d="M431.53 100.305L428.831 107.292L423.722 107.292L424.258 111.333" stroke="#EF9E1D" stroke-width="0.93" stroke-miterlimit="10"/>
<path d="M423.723 107.291L419.417 108.363L420.51 111.064" stroke="#EF9E1D" stroke-width="0.93" stroke-miterlimit="10"/>
<path d="M430.705 109.725L430.437 106.488L434.743 106.488" stroke="#EF9E1D" stroke-width="0.93" stroke-miterlimit="10"/>
<path d="M540.216 51.9707L578.408 65.477L564.867 75.523L572.407 92.5789L536.624 83.0463L540.216 51.9707Z" fill="#D54532"/>
<path d="M105.793 38.7991C105.793 38.7991 109.348 41.6599 114.86 45.7263C117.623 47.7299 120.837 50.1101 124.347 52.5675L135.409 60.1171C137.311 61.3844 139.267 62.59 141.146 63.8007L146.717 67.3019C148.517 68.4792 150.324 69.4818 152.032 70.4522L156.855 73.1708C158.185 73.9873 159.571 74.7102 161.002 75.3342L164.293 76.8383L167.162 78.0994L164.446 76.5184L161.334 74.7896C160.11 74.1353 158.796 73.2742 157.303 72.3475C154.433 70.4864 151.064 68.3875 147.503 66.0303C143.942 63.6731 140.122 61.1976 136.337 58.6618L125.152 51.2946C121.609 48.9169 118.219 46.8 115.367 44.9184C112.515 43.0367 110.076 41.5534 108.4 40.4841L105.793 38.7991Z" fill="#E0E0E0"/>
<path d="M57.0067 63.7353L62.8663 67.2173C66.6478 69.405 71.9875 72.6312 78.4812 76.342L88.9734 82.3036C92.7112 84.4167 96.6326 86.6725 100.745 88.8963L126.506 102.844L152.629 116.129C161.078 120.155 169.016 123.77 175.804 126.958C179.18 128.573 182.444 129.672 185.247 130.822L192.594 133.682L198.986 136.161L192.708 133.365L185.516 130.204L181.092 128.252C179.539 127.581 177.869 126.899 176.226 126.04C169.508 122.731 161.724 118.816 153.33 114.747L127.291 101.263L101.407 87.4975L78.905 75.4429L57.0067 63.7353Z" fill="#E0E0E0"/>
<path d="M72.4911 150.406L74.9852 151.267C76.5654 151.762 78.8414 152.54 81.5833 153.345C84.3252 154.15 87.5023 155.1 91.0068 156.029C94.5112 156.957 98.1851 157.817 101.9 158.712C105.615 159.607 109.374 160.287 112.9 160.962C114.664 161.31 116.397 161.485 118.018 161.725L122.606 162.369C123.892 162.571 125.192 162.666 126.493 162.653L129.517 162.743L132.132 162.801L129.514 162.414C127.871 162.136 125.519 161.963 122.714 161.375L118.205 160.455C116.595 160.097 114.912 159.803 113.165 159.415C109.687 158.601 105.96 157.804 102.25 156.985C98.5398 156.167 94.8235 155.253 91.3306 154.497C87.8377 153.742 84.5976 153.009 81.7901 152.383C78.9827 151.756 76.6695 151.29 75.0379 150.895L72.4911 150.406Z" fill="#E0E0E0"/>
<path d="M49.1466 105.271L55.697 108.088C59.8881 109.745 65.8647 112.368 73.0955 115.236C80.3263 118.104 88.7701 121.473 97.911 124.853C102.449 126.487 107.171 128.283 111.986 130.015C116.801 131.747 121.675 133.495 126.585 135.201C136.479 138.551 146.361 141.746 155.621 144.576C160.246 146.069 164.812 147.256 169.107 148.442C173.402 149.628 177.511 150.633 181.283 151.505C183.245 151.936 184.981 152.44 186.725 152.789L191.682 153.737C194.796 154.324 197.562 154.914 199.763 155.136L206.859 155.981L199.818 154.803C197.574 154.507 194.898 153.814 191.814 153.109L186.922 151.963C185.212 151.554 183.418 151.034 181.528 150.54C177.786 149.53 173.655 148.489 169.467 147.16C165.278 145.832 160.686 144.55 156.061 143.057C146.798 140.169 136.947 136.874 127.166 133.459C122.262 131.849 117.274 130.129 112.537 128.411C107.801 126.693 102.989 125.019 98.43 123.348C89.2967 120.083 80.754 116.973 73.4551 114.245L49.1466 105.271Z" fill="#E0E0E0"/>
<path d="M50.5427 126.298L52.5451 127.326C53.8801 127.915 55.7606 128.854 58.0878 129.822L61.8284 131.393C63.1608 131.944 64.5369 132.568 66.0195 133.051L70.5572 134.685C72.1027 135.24 73.6713 135.852 75.2682 136.308L80.037 137.926C81.6172 138.422 83.1409 138.94 84.6749 139.322C87.7262 140.126 90.5799 140.865 93.033 141.399C95.4861 141.933 97.6236 142.081 99.0703 142.314L101.353 142.608C101.353 142.608 98.0974 141.643 93.2771 140.415C90.8869 139.664 88.1155 138.706 85.1361 137.82C83.6368 137.378 82.126 136.762 80.5663 136.285L75.836 134.663C74.2365 134.17 72.6884 133.576 71.1249 133.041L66.5551 131.505L58.4424 128.754C53.7416 127.285 50.5427 126.298 50.5427 126.298Z" fill="#E0E0E0"/>
<path d="M86.5693 56.0026L88.9528 58.1089C90.5431 59.3388 92.7906 61.1445 95.5772 63.2046C98.3638 65.2648 101.58 67.6836 105.128 70.1384C108.676 72.5932 112.484 75.1856 116.348 77.7356C120.211 80.2855 124.158 82.6364 127.881 84.8087C129.752 85.9038 131.562 86.9449 133.344 87.8524C135.126 88.76 136.745 89.5621 138.346 90.3655C139.755 91.0771 141.198 91.7177 142.671 92.2849C143.998 92.758 145.131 93.2247 146.099 93.5282L149.203 94.2511L146.232 93.1903C145.298 92.8265 144.236 92.2584 142.939 91.667C141.643 91.0757 140.331 90.2531 138.809 89.4638C137.286 88.6746 135.696 87.735 133.983 86.7067C132.271 85.6785 130.534 84.5744 128.682 83.478C125.014 81.2441 121.154 78.7519 117.312 76.2392C113.471 73.7265 109.593 71.2549 105.991 68.8617L96.1409 62.3736L89.166 57.8237L86.5693 56.0026Z" fill="#E0E0E0"/>
<path d="M190.596 76.5224C190.596 76.5224 298.903 121.59 350.555 126.115C343.672 182.355 331.679 207.965 331.679 207.965C331.679 207.965 212.232 201.942 163.49 187.352C172.917 116.698 190.596 76.5224 190.596 76.5224Z" fill="#E5ECF3"/>
<path d="M190.597 76.5245C193.514 80.06 196.468 83.5801 199.46 87.0847C202.44 90.6031 205.401 94.1227 208.398 97.6013L226.419 118.489L235.538 128.82L244.713 139.127C250.853 145.958 256.977 152.829 263.172 159.618L263.986 160.512L265.099 160.09C272.249 157.37 279.419 154.668 286.546 151.891C293.672 149.115 300.819 146.356 307.922 143.504C315.024 140.651 322.151 137.875 329.231 134.985C336.312 132.095 343.41 129.185 350.443 126.163C343.158 128.583 335.929 130.998 328.663 133.416C321.396 135.834 314.224 138.498 307.003 141.029C299.783 143.56 292.586 146.148 285.392 148.793C278.199 151.439 271.023 154.064 263.87 156.726L265.835 157.196C259.712 150.325 253.518 143.555 247.321 136.747L238.001 126.585L228.644 116.464L209.751 96.4275C206.589 93.0761 203.392 89.785 200.193 86.4747C196.995 83.1644 193.834 79.8323 190.597 76.5245Z" fill="#AEAEAE"/>
</g>
<defs>
<linearGradient id="paint0_linear_4463_438" x1="377.637" y1="176.474" x2="471.268" y2="200.231" gradientUnits="userSpaceOnUse">
<stop stop-color="#22063F"/>
<stop offset="1" stop-color="#390074"/>
</linearGradient>
<clipPath id="clip0_4463_438">
<rect width="588" height="524" fill="white" transform="matrix(-1 -8.74228e-08 -8.74228e-08 1 588 0)"/>
</clipPath>
</defs>
</svg>
